<svg xmlns="http://www.w3.org/2000/svg" viewBox="0 0 764.26 610.36"><path d="M382.13 0S259.59 262.82 0 261.18c0 0 243.07 19.35 382.13-188.65C521.2 280.56 764.26 261.18 764.26 261.18 504.67 262.82 382.13 0 382.13 0z" fill="#63a496"/><path d="M404.96 436.01c1.46-37.37 9.28-222.91 22.32-256.23 0 0-33.86-4.84-45.15-48.37-11.32 43.53-45.15 48.37-45.15 48.37 13 33.32 20.87 218.86 22.32 256.23a44.74 44.74 0 1 0 45.65 0zm-22.83 63.63a25.19 25.19 0 1 1 25.19-25.19 25.19 25.19 0 0 1-25.19 25.19z" fill="#63a496"/><path d="M246.7 283.99a22.3 22.3 0 1 0-35.89 17.59v91.7s0 167.67-108.65 181.72a22.29 22.29 0 1 0 2.22 22.34c22.58-3.41 124.72-28.49 133.58-204.06v-91.71a22.18 22.18 0 0 0 8.74-17.58z" fill="#679990"/><path d="M517.15 283.99a22.3 22.3 0 1 1 35.86 17.59v91.7s.05 167.67 108.68 181.72a22.29 22.29 0 1 1-2.22 22.34c-22.58-3.41-124.72-28.49-133.58-204.06v-91.71a22.18 22.18 0 0 1-8.74-17.58z" fill="#63a496"/></svg>